<svg width="343" height="343" viewBox="0 0 343 343" fill="none" xmlns="http://www.w3.org/2000/svg">
<rect width="343" height="343" fill="black"/>
<path d="M93.3439 281V62.8182H179.423C195.972 62.8182 210.07 65.9787 221.718 72.2997C233.365 78.5497 242.243 87.25 248.351 98.4006C254.53 109.48 257.62 122.264 257.62 136.753C257.62 151.241 254.495 164.026 248.245 175.105C241.995 186.185 232.939 194.814 221.078 200.993C209.289 207.172 195.013 210.261 178.252 210.261H123.387V173.294H170.794C179.672 173.294 186.987 171.767 192.74 168.713C198.564 165.588 202.896 161.291 205.737 155.822C208.649 150.283 210.105 143.926 210.105 136.753C210.105 129.509 208.649 123.187 205.737 117.79C202.896 112.321 198.564 108.095 192.74 105.112C186.916 102.058 179.53 100.531 170.581 100.531H139.473V281H93.3439Z" fill="white"/>
</svg>
